<?xml version="1.0" encoding="UTF-8"?>
<svg width="84px" height="84px" viewBox="0 0 84 84" version="1.1" xmlns="http://www.w3.org/2000/svg" xmlns:xlink="http://www.w3.org/1999/xlink">
    <title>print</title>
    <defs>
        <path d="M0,0 L84,0 L84,84 L0,84 L0,0 Z" id="path-1"></path>
    </defs>
    <g id="print" stroke="none" fill="none" xlink:href="#path-1" fill-rule="evenodd" stroke-width="1">
        <g id="Group" transform="translate(6, 11)">
            <path d="M69,19 C69.5522847,19 70.0522847,19.2238576 70.4142136,19.5857864 C70.7761424,19.9477153 71,20.4477153 71,21 L71,47 C71,47.5522847 70.7761424,48.0522847 70.4142136,48.4142136 C70.0522847,48.7761424 69.5522847,49 69,49 L54,49 L54,37 L16,37 L16,49 L3,49 C2.44771525,49 1.94771525,48.7761424 1.58578644,48.4142136 C1.22385763,48.0522847 1,47.5522847 1,47 L1,21 C1,20.4477153 1.22385763,19.9477153 1.58578644,19.5857864 C1.94771525,19.2238576 2.44771525,19 3,19 Z" id="Path" stroke="#303D53" stroke-width="2" fill-rule="nonzero"></path>
            <path d="M32.6959802,37 C32.9657933,37 33.18452,37.2187267 33.18452,37.4885399 L33.184,50.716 L33.1971644,50.7519367 C33.6308237,52.1241361 32.0679346,53.8116256 29.6789829,54.5933059 L29.4452545,54.6660837 C26.9254836,55.4113435 24.519915,54.8672251 24.0722667,53.4507612 C23.6246185,52.0342972 25.3044057,50.2818739 27.8241767,49.5366141 C29.5273502,49.0328752 31.1783477,49.1182186 32.2078079,49.6638598 L32.2074403,37.4885399 C32.2074403,37.2187267 32.4261671,37 32.6959802,37 Z M44.4209367,37 C44.6907498,37 44.9094765,37.2187267 44.9094765,37.4885399 L44.909,45.595 L44.9277333,45.6447954 C45.3613925,47.0169949 43.7985034,48.7044843 41.4095517,49.4861647 L41.1758233,49.5589425 C38.6560524,50.3042023 36.2504839,49.7600838 35.8028356,48.3436199 C35.3551873,46.927156 37.0349746,45.1747327 39.5547455,44.4294729 C41.2546892,43.9266892 42.9026546,44.0107558 43.9325134,44.5536194 L43.9323968,37.4885399 C43.9323968,37.2187267 44.1511235,37 44.4209367,37 Z" id="Combined-Shape-Copy-2" fill="#303D53"></path>
            <circle id="Oval" fill="#303D53" cx="8" cy="26" r="2"></circle>
            <path d="M55,36 L55,60.46875 C55,61.8667208 53.6568542,63 52,63 L18,63 C16.3431458,63 15,61.8667208 15,60.46875 L15,36 L55,36 Z M53,38 L17,38 L17,60.1785714 C17,60.5998294 17.3860402,60.9470237 17.8833789,60.9944736 L18,61 L52,61 C52.5522847,61 53,60.6322339 53,60.1785714 L53,38 Z" id="Rectangle-2-Copy-7" fill="#303D53" fill-rule="nonzero"></path>
            <rect id="Rectangle" stroke="#303D53" stroke-width="2" x="16" y="1" width="38" height="18"></rect>
        </g>
    </g>
</svg>