<?xml version="1.0" encoding="UTF-8"?>
<svg width="72px" height="72px" viewBox="0 0 72 72" version="1.1" xmlns="http://www.w3.org/2000/svg" xmlns:xlink="http://www.w3.org/1999/xlink">
    <title>Frame 2</title>
    <defs>
        <path d="M0,0 L72,0 L72,72 L0,72 L0,0 Z" id="path-1"></path>
    </defs>
    <g id="Frame-2" stroke="none" fill="none" xlink:href="#path-1" fill-rule="evenodd" stroke-width="1">
        <path d="M35.2272353,12.4148449 C35.7002267,12.3651728 35.7864306,12.4132145 35.8535534,12.4803373 C35.9206762,12.5474601 35.9687179,12.633664 35.9891839,12.7304544 L39.5014868,29.3412704 C39.5628848,29.6316414 39.70701,29.8902531 39.9083784,30.0916216 C40.1097469,30.29299 40.3683586,30.4371152 40.6587296,30.4985132 L57.2695456,34.0108161 C57.40463,34.0393792 57.5153485,34.1199921 57.5851551,34.2272353 C57.6549617,34.3344784 57.6838564,34.4683519 57.6552932,34.6034363 C57.6348272,34.7002267 57.5867855,34.7864306 57.5196627,34.8535534 C57.4525399,34.9206762 57.366336,34.9687179 57.2695456,34.9891839 L40.6587296,38.5014868 C40.3683586,38.5628848 40.1097469,38.70701 39.9083784,38.9083784 C39.70701,39.1097469 39.5628848,39.3683586 39.5014868,39.6587296 L35.9891839,56.2695456 C35.9606208,56.40463 35.8800079,56.5153485 35.7727647,56.5851551 C35.6655216,56.6549617 35.5316481,56.6838564 35.3965637,56.6552932 C35.2997733,56.6348272 35.2135694,56.5867855 35.1464466,56.5196627 C35.0793238,56.4525399 35.0312821,56.366336 35.0108161,56.2695456 L31.4985132,39.6587296 C31.4371152,39.3683586 31.29299,39.1097469 31.0916216,38.9083784 C30.8902531,38.70701 30.6316414,38.5628848 30.3412704,38.5014868 L13.7304544,34.9891839 C13.59537,34.9606208 13.4846515,34.8800079 13.4148449,34.7727647 C13.3450383,34.6655216 13.3161436,34.5316481 13.3447068,34.3965637 C13.3651728,34.2997733 13.4132145,34.2135694 13.4803373,34.1464466 C13.5474601,34.0793238 13.633664,34.0312821 13.7304544,34.0108161 L30.3412704,30.4985132 C30.6316414,30.4371152 30.8902531,30.29299 31.0916216,30.0916216 C31.29299,29.8902531 31.4371152,29.6316414 31.4985132,29.3412704 L35.0108161,12.7304544 C35.0393792,12.59537 35.1199921,12.4846515 35.2272353,12.4148449 Z" id="Star-Copy" stroke="#AB8A12" fill="#F6D868"></path>
    </g>
</svg>