<?xml version="1.0" encoding="UTF-8"?>
<svg width="128px" height="83px" viewBox="0 0 128 83" version="1.1" xmlns="http://www.w3.org/2000/svg" xmlns:xlink="http://www.w3.org/1999/xlink">
    <title>tempo-medium</title>
    <defs>
        <path d="M0,0 L128,0 L128,83 L0,83 L0,0 Z" id="path-1"></path>
        <path d="M0,0 L98,0 L98,52 L0,52 L0,0 Z" id="path-2"></path>
    </defs>
    <g id="tempo-medium" stroke="none" fill="none" xlink:href="#path-1" fill-rule="evenodd">
        <g id="tempo-slow" transform="translate(15, 17)" xlink:href="#path-2" fill="#303D53">
            <path d="M59.4505216,21.8950811 C61.3109679,21.4149147 64.9059509,19.5723295 66.218746,18.6030944 C67.6258983,17.5641954 66.5167695,29.0793884 67.0252948,33.0060144 C67.53382,36.9326405 67.2887013,43.0443058 66.871017,43.916716 C66.5925607,44.4983228 65.9375387,44.850742 64.9059509,44.9739735 L63.8739256,43.5744702 C63.8895482,44.1466075 63.7320104,44.6131086 63.4013124,44.9739735 C63.0706144,45.3348385 62.3745363,45.4652361 61.3130782,45.3651665 L60.2973629,43.2237786 C60.3373566,44.2969039 60.1573849,45.0106999 59.7574478,45.3651665 C59.1575421,45.8968664 53.8697804,44.4537256 52.6152427,43.5744702 C51.360705,42.6952147 54.3910516,41.540781 54.3910516,36.5121659 C54.3910516,32.0202697 59.2843912,29.5612391 59.4505216,29.4498616 C62.5806014,27.3513877 59.4505216,22.9418401 59.4505216,21.8950811 Z" id="Path"></path>
            <path d="M90.1569749,11.7752339 C92.4779116,16.0220846 90.8010185,19.5776056 89.4501773,20.7580711 C88.5496165,21.545048 87.3249869,21.9443411 85.7762884,21.9559504 C84.6882973,23.2119403 83.4769733,24.2111728 82.1423164,24.9536477 C80.1403309,26.0673601 76.6798439,26.145945 74.1076994,26.9357307 C71.5902815,27.7087124 73.0652549,28.3990877 75.6955017,28.8881404 L76.4265066,29.0226797 L76.7966309,29.096554 L77.175609,29.1795641 C79.4478244,29.704407 81.6997547,30.7562509 84.4432946,34.7607404 C87.7105303,39.5296196 87.9389009,41.94434 87.5113296,42.8237394 C87.2262821,43.4100056 86.5557552,43.7652481 85.4997488,43.8894669 L84.4432946,42.4787517 C84.459287,43.0554725 84.2980202,43.525711 83.9594943,43.8894669 C83.6209684,44.2532229 82.9084136,44.3846652 81.8218298,44.2837938 L80.7820717,42.1252505 C80.8230121,43.206973 80.6387803,43.9264875 80.2293763,44.2837938 C79.8199723,44.6411002 78.1993723,44.5096579 75.3675762,43.8894669 C75.6303624,41.7146707 75.3050781,40.5031828 74.3917234,40.2550032 C73.4783688,40.0068236 72.5668052,39.9088546 71.6570328,39.9610961 C70.5603141,35.3660329 69.294808,32.4895875 67.8605147,31.3317601 C65.7090746,29.5950189 63.239943,28.3782141 61.3109679,29.0642561 L61.5649483,28.242088 C62.6497967,24.6666411 62.9685344,22.7281746 63.239943,20.7580711 C65.2071757,19.6347899 65.7830769,18.7411348 66.6713484,17.6610575 L66.9489046,17.3310256 C67.6586118,16.508576 68.1485687,15.781451 68.4187754,15.1496508 C68.8948354,15.0089211 69.394884,14.700051 69.9189211,14.2230406 L70.0482017,14.0936205 C71.0635736,13.0137698 74.7436383,8.06298378 78.6060256,7.63054437 L79.1179639,7.57826841 C83.0834611,7.2130544 87.9327439,7.70533524 90.1569749,11.7752339 Z M82.6990404,12.6991158 C81.6250381,12.9668946 80.9168553,13.8355966 81.1172699,14.6394159 C81.3176846,15.4432352 82.3508037,15.8777818 83.4248061,15.6100029 C84.4988085,15.3422241 85.2069913,14.4735221 85.0065766,13.6697028 C84.806162,12.8658835 83.7730428,12.4313369 82.6990404,12.6991158 Z" id="Combined-Shape"></path>
            <path d="M62.163356,20.4797041 C62.7979909,18.6099147 65.4943781,11.7924603 67.3109679,9.87882702 C66.6384369,8.51322897 64.3923229,6.7123499 62.163356,5.47970411 C58.651398,7.3665231 55.184863,10.811283 53.3460083,13.7249018 C52.9891909,14.29027 55.4424807,17.5883304 56.8417753,18.6099147 C58.8889814,20.1045202 60.642892,20.4797041 62.163356,20.4797041 Z" id="Oval-Copy" transform="translate(60.311, 12.9797) scale(-1, 1) translate(-60.311, -12.9797)"></path>
            <path d="M58.9447008,26.7765676 C56.4204662,26.3863307 54.6586853,23.0412837 53.8385343,21.6147851 C53.4182642,20.8838041 50.1766538,23.7631801 51.1979972,26.870864 C51.8214951,28.7680069 56.4998545,31.3502913 57.1935502,31.5 C57.8315121,28.4250573 59.3024747,26.831878 58.9447008,26.7765676 Z" id="Oval-Copy-7" transform="translate(55, 26.5) scale(-1, 1) rotate(-12) translate(-55, -26.5)"></path>
            <path d="M56.0877881,24.0738374 C56.0877881,21.1814804 56.5899426,13.7769068 56.0877881,12.8199332 C55.9836017,12.6379116 55.0090621,12.3439566 54.6650475,12.2893247 C52.2378911,11.9038749 50.5351089,11.4900432 47.9062026,10.5193309 C46.9528251,10.1673005 45.87178,12.233815 45.0662062,13.8212826 C43.8497657,16.2184061 43.0788348,17.838355 42.3430906,20.4892864 C42.2112333,20.9643764 42.4963768,21.4932972 42.9955363,21.9983543 C44.3555724,23.374459 47.3237351,25.0896044 49.0833843,25.4797041 C51.332768,25.4797041 56.0877881,24.9464302 56.0877881,24.0738374 Z" id="Oval-Copy-3" transform="translate(49.311, 17.9797) scale(-1, 1) translate(-49.311, -17.9797)"></path>
            <path d="M33.6103517,32.289574 C33.8149737,32.289574 35.5824062,32.1791343 37.3497714,32.4783348 C39.0973191,32.7741804 40.8434764,33.4797041 41.3109679,33.4797041 C41.6236672,33.4797041 43.4966445,32.7789948 45.4009335,32.289574 C47.2470009,31.8151167 49.1285516,31.5531006 49.2681395,31.453681 C49.5933712,31.2220391 50.5315407,26.6656291 50.2633829,26.294816 C49.8620523,25.7398494 47.3226455,25.4797041 42.0996066,25.4797041 C36.1913965,25.4797041 32.9512705,26.1967481 32.4718958,27.0487536 C31.9925212,27.900759 32.6464888,32.289574 33.6103517,32.289574 Z" id="Oval-Copy-4" transform="translate(41.311, 29.4797) rotate(180) translate(-41.311, -29.4797)"></path>
            <path d="M31.1576474,9.98960913 C31.565823,9.98960913 40.8394118,11.4797041 41.782529,11.4797041 C42.4002227,11.4797041 51.7083287,9.04579583 51.9927611,8.73494688 C52.3189727,8.37843855 56.3109679,5.0745383 56.3109679,4.84867766 C56.3109679,3.9225015 52.2702008,0.479704114 42.3326278,0.479704114 C29.3139834,0.479704114 26.892414,4.99611585 26.3563508,5.56831399 C25.8202877,6.14051214 30.1908806,9.98960913 31.1576474,9.98960913 Z" id="Oval"></path>
            <path d="M25.2034644,36.8794008 C25.5573006,36.8794008 26.3326951,36.8794008 30.010163,36.4422898 C33.6876309,36.0051788 40.025551,36.0051788 43.0569972,36.4422898 C46.0884435,36.8794008 51.0413504,37.526901 51.2827284,37.4769811 C51.8451253,37.3606706 53.7010391,35.6560808 53.2373354,35.4698906 C52.5433468,35.1912344 47.3427469,33.4797041 38.3109679,33.4797041 C28.0943777,33.4797041 24.4877521,35.0420873 23.6588083,35.4698906 C22.8298645,35.8976939 23.5367342,36.8794008 25.2034644,36.8794008 Z" id="Oval-Copy-6" transform="translate(38.311, 35.4797) rotate(180) translate(-38.311, -35.4797)"></path>
            <path d="M39.2661723,24.7275069 C39.4363348,24.625469 40.1878703,23.9007212 40.2187899,23.313953 C40.3747121,20.3549901 40.3747121,13.7729826 39.884518,12.792201 C39.7828132,12.605651 39.6054723,12.4865451 39.2661723,12.4865451 C36.9622838,12.4865451 33.7388965,12.1853829 31.1016388,11.4873782 C30.3620224,11.2916234 30.1503262,14.8939031 29.7390903,16.2375346 C29.5496865,16.8563739 29.3060434,18.1103706 26.3279054,23.0639824 C25.9873422,23.6304497 30.8768551,26.4797041 32.5026117,26.4797041 C34.6984193,26.4797041 37.7461629,25.6389794 39.2661723,24.7275069 Z" id="Oval-Copy-2"></path>
            <path d="M24.5334319,22.4797041 C26.1109875,21.8457131 29.9070814,12.0729924 29.2311881,10.7480049 C28.5552949,9.42301729 26.2979515,7.67569318 24.057841,6.47970411 C21.4811769,8.40350287 16.4779254,13.1245129 15.3202764,17.9540587 C15.1624083,18.612662 17.0444594,20.4984174 18.5420016,21.2095326 C20.7773383,22.2709933 23.0053664,22.4797041 24.5334319,22.4797041 Z" id="Oval"></path>
            <path d="M15.1695799,29 C17.7411923,27.6823742 20.0483138,27.0034889 22.0909443,26.963344 C25.1548901,26.9031267 27.5058344,28.4782567 27.6458138,28.3849189 C27.9719577,28.1674472 32.2567713,24.0962608 31.9878614,23.7481313 C31.5854051,23.2271136 25.8710582,22.1826892 20.369909,22 C14.4451273,22 7.61656548,23.1552315 7.13584628,23.9551174 C6.71135463,24.6614443 7.34968815,28.7964143 8.11176283,28.8407962 C8.61981262,28.8703842 10.9724183,28.9234521 15.1695799,29 Z" id="Oval-Copy-5" transform="translate(19.5, 25.5) rotate(205) translate(-19.5, -25.5)"></path>
            <path d="M16.4701457,41.5655454 C16.4701457,41.7260463 16.8124557,43.1365015 15.6871245,43.2615049 C14.9677114,43.3414184 14.1711452,43.4002513 13.2974257,43.4380038 C13.0147507,42.7651332 12.8734132,42.2290422 12.8734132,41.8297306 C12.7087895,41.852573 11.8443868,43.4163711 11.6765219,43.4380038 C11.2450741,43.4936042 10.560494,43.4936042 9.62278168,43.4380038 L9.2144615,42.2516132 C8.56630166,43.0420162 8.12358694,43.4374797 7.88631732,43.4380038 C6.09369383,43.4419633 4.41806792,42.7552032 3.56777958,42.2516132 C2.76222017,41.7745143 4.06630029,38.755111 4.54354545,37.9129747 C7.10658229,33.3902962 10.8048233,30.1830913 13.7876476,29.5232428 C15.3534899,29.1768534 20.093832,31.4098889 22.3109679,32.2223848 C22.6742287,32.355506 23.3724568,32.8017426 23.1185915,33.0044843 C18.7627286,36.4831598 16.4701457,40.5064607 16.4701457,41.5655454 Z" id="Path-Copy"></path>
            <path d="M10.1617247,25.4797041 L0.310967857,27.1983414 C3.37771108,27.9001635 5.62041278,28.2510745 7.03907296,28.2510745 C8.45773314,28.2510745 10.8816981,28.3272844 14.3109679,28.4797041 C13.3136054,27.9144639 12.494715,27.4147677 11.8542968,26.9806154 C11.2138785,26.5464631 10.6496878,26.0461593 10.1617247,25.4797041 Z" id="Path"></path>
        </g>
    </g>
</svg>