<?xml version="1.0" encoding="UTF-8"?>
<svg width="128px" height="83px" viewBox="0 0 128 83" version="1.1" xmlns="http://www.w3.org/2000/svg" xmlns:xlink="http://www.w3.org/1999/xlink">
    <title>tempo-fast</title>
    <defs>
        <path d="M0,0 L128,0 L128,83 L0,83 L0,0 Z" id="path-1"></path>
        <path d="M0,0 L91,0 L91,57 L0,57 L0,0 Z" id="path-2"></path>
    </defs>
    <g id="tempo-fast" stroke="none" fill="none" xlink:href="#path-1" fill-rule="evenodd">
        <g id="tempo_medium" transform="translate(16, 13)" xlink:href="#path-2" fill="#303D53">
            <path d="M33.2839865,44.6642684 L35.1178401,45.1469373 C33.2903036,48.0781121 32.9846613,50.1041496 34.2009133,51.2250496 C35.4171653,52.3459496 36.8446189,53.2335063 38.4832741,53.8877199 C36.3365136,56.2618543 33.8164126,57.2776965 30.922971,56.9352467 C26.5828087,56.4215719 25.5253265,54.7271163 25.5253265,53.461309 C25.5253265,52.1955018 25.8992987,52.3783406 28.6886134,50.2971106 C30.5481566,48.9096239 32.0799476,47.0320098 33.2839865,44.6642684 Z M58.6624258,1.35912383 C65.4832948,3.76734062 68.9052295,6.03659974 71.2190498,8.69344739 C72.7615966,10.4646792 73.6788786,11.7024743 73.9708958,12.4068327 C79.7957312,11.691373 84.6251737,13.9805379 88.4592234,19.2743274 C90.1530745,21.4954655 91,23.3248834 91,24.7625811 C89.3507837,28.6454553 86.5580855,31.0751091 82.6219054,32.0515424 C78.6857254,33.0279758 74.8847735,32.6690975 71.2190498,30.9749076 C72.4404533,32.1384336 73.7189742,32.9855285 75.0546125,33.5161925 C76.3902508,34.0468565 77.4476783,34.3261608 78.2268952,34.3541055 C77.7934086,35.6280755 77.3292828,36.6490124 76.8345179,37.4169162 C76.4222138,38.0568361 75.9414813,38.4531174 75.3923204,38.6057603 L75.3641197,38.612 L75.3784631,38.6096043 C77.2028795,38.3167596 78.8447629,38.6815501 80.3041135,39.7039757 C82.6219054,41.3278281 83.773709,43.7325997 80.3041135,45.6418321 C76.8345179,47.5510645 70.2544852,48.7947931 68.6152928,48.1729288 C66.9761004,47.5510645 65.7079816,45.8152421 67.1616372,44.6191726 C68.1307409,43.8217929 69.4832118,42.6173017 71.2190498,41.005699 C69.2831119,42.5085855 67.5196609,43.2600288 65.9286967,43.2600288 C63.6903394,41.005699 62.1402274,38.6681094 57.4098892,38.6681094 C54.2563303,38.6681094 51.998424,38.8130309 50.6361702,39.1028738 C51.9559329,35.4962607 52.1191659,32.5995703 51.1258691,30.4128025 C49.6359238,27.1326508 46.775064,24.4658408 44.5411158,23.7720287 C43.051817,23.3094872 41.3929013,23.168255 39.5643689,23.3483322 C42.7393997,23.9813009 44.9871662,25.2328451 46.3076682,27.102965 C48.2884213,29.9081449 49.5273928,32.7178924 49.1254141,35.4780998 C48.8574283,37.3182381 47.9181796,39.67459 46.3076682,42.5471557 C49.0844065,41.3057437 51.8996095,40.7919248 54.7532773,41.005699 C59.0337791,41.3263603 61.3152426,41.9027077 62.9360975,44.6191726 C64.5569524,47.3356374 64.2657997,49.4244341 62.9360975,49.8088767 C62.2712464,50.001098 60.618755,49.9049874 58.9358696,49.8088767 L58.2155629,49.768527 C56.7823911,49.6911902 55.4273579,49.6441156 54.7532773,49.8088767 C53.1804226,50.1933193 46.21288,52.0507635 42.2143187,52.0507635 C38.2157575,52.0507635 35.5064135,51.0910063 35.5064135,49.270608 C35.5064135,47.4502097 37.1941777,45.1084709 37.1941777,43.6317892 C37.1941777,42.1551076 34.1701657,43.1563329 31.1505175,42.081016 C28.1308692,41.005699 25.6232229,38.4388989 24.8040682,35.4780998 C24.257965,33.5042337 24.0062468,32.0031697 24.0489137,30.9749076 C22.3475736,30.4157558 21.1100738,29.24058 20.3364142,27.4493805 C19.1759247,24.7625811 20.0486554,19.5507089 22.7640601,18.0723664 C25.4794648,16.5940239 28.9914786,16.5940239 31.1505175,18.5900269 C32.5898767,19.9206955 33.2340004,20.8279506 33.0828887,21.3117922 C35.6186563,19.1793256 37.942221,17.7543283 40.0535829,17.0368002 C43.2206257,15.9605081 45.9052424,15.779695 49.6414996,16.6923475 C52.1323377,17.3007825 56.6877496,19.0376028 63.3077353,21.9028083 C63.3743215,21.0227038 63.5630091,20.3047668 63.8737982,19.7489974 C64.1845873,19.193228 64.8695535,18.634351 65.9286967,18.0723664 C63.2286581,18.0313134 59.5035183,17.44594 54.7532773,16.3162463 C47.6279159,14.6217057 44.485358,12.0073978 42.6254719,10.1200226 C40.7655857,8.23264736 38.8918814,5.11956996 43.0230492,5.11956996 C47.154217,5.11956996 49.1156793,5.23904894 52.2921767,6.37642988 C54.4098416,7.13468385 55.9237062,7.72251058 56.8337704,8.13991009 L49.9606136,3.76734062 C49.4038139,2.89646267 49.1254141,2.09372374 49.1254141,1.35912383 C49.1254141,0.257223975 51.8415569,-1.04909295 58.6624258,1.35912383 Z M21.832952,39.1024209 L23.6470377,41.3452513 C20.7582052,41.3452513 17.3866553,41.276634 13.5323878,41.1393996 C9.67812032,41.0021651 6.30657037,40.7614818 3.41773794,40.4173496 L21.832952,39.1024209 Z M17.3958244,29.7008612 L17.9814704,31.7986543 C17.2588031,31.9674645 14.9701453,31.9674645 11.1154968,31.7986543 C7.26084831,31.6298442 3.88901605,31.3337831 1,30.9104709 L17.3958244,29.7008612 Z M17.355218,20.3072717 L16.9484891,22.9207123 L-1.98951966e-13,22.243653 L17.355218,20.3072717 Z M78.5570855,19.1579743 C78.3410061,20.2417095 78.818495,20.9537751 79.9895522,21.2941711 C81.1606095,21.6345671 81.9355052,21.3865946 82.3142394,20.5502536 C82.1737735,19.6800851 81.6823333,19.0566844 80.8399186,18.6800515 C79.997504,18.3034186 79.2365597,18.4627262 78.5570855,19.1579743 Z" id="Combined-Shape"></path>
        </g>
    </g>
</svg>