<?xml version="1.0" encoding="UTF-8"?>
<svg width="128px" height="83px" viewBox="0 0 128 83" version="1.1" xmlns="http://www.w3.org/2000/svg" xmlns:xlink="http://www.w3.org/1999/xlink">
    <title>tempo-slow</title>
    <defs>
        <path d="M0,0 L128,0 L128,83 L0,83 L0,0 Z" id="path-1"></path>
        <path d="M0,0 L87,0 L87,42 L0,42 L0,0 Z" id="path-2"></path>
    </defs>
    <g id="tempo-slow" stroke="none" fill="none" xlink:href="#path-1" fill-rule="evenodd">
        <g transform="translate(21, 22)" xlink:href="#path-2" fill="#303D53">
            <ellipse id="Oval-2" cx="84.5089496" cy="4.01213119" rx="2.49105039" ry="2.51213119"></ellipse>
            <ellipse id="Oval-2-Copy" cx="74.010173" cy="2.5116959" rx="2.48982701" ry="2.5116959"></ellipse>
            <path d="M31.4745962,35.5028362 C38.5272245,37.4395832 42.3172478,35.7504953 43.1242052,35.5028362 C56.1008065,31.5202546 57.7465258,27.1271288 61.4363534,21.5221959 C61.4363534,11.249367 50.4525386,0.260727772 38.1135355,0.260727772 C25.7745325,0.260727772 17.3107545,7.98095077 17.3107545,18.2537797 C17.3107545,22.8723988 19.7587015,27.7522039 23.6547813,31.0423597 C26.3069342,33.282046 34.0116837,34.1520147 37.1547186,32.9800931 C41.7113965,31.2810763 45.130329,28.90799 45.4667328,22.8053515 C45.5913033,20.5455427 43.3982499,11.9895712 36.4770659,11.9895712 C33.3038209,11.9895712 31.391012,12.2357036 29.068404,15.6468825 C28.1273593,17.0289807 27.1818093,19.7519913 29.4666589,22.8053515 C30.6796013,24.4262678 33.1698688,25.4474433 35.9088511,23.7836884 C37.3463711,22.9104879 38.4508836,19.1452027 35.9088511,17.7304935 C38.2301306,17.7304935 39.4070469,19.9086136 38.9185892,22.4146782 C38.2301306,25.9468607 34.5914897,27.4702081 30.3407618,26.0383709 C28.3849704,25.379572 23.1656383,19.4961104 28.3337453,12.7186678 C30.0806021,10.4278442 38.0145594,6.23802161 44.7667528,13.7457771 C48.7703124,18.19733 48.7139252,23.9145934 46.6819246,27.2452329 C41.9253972,35.0416273 38.1135355,35.0416273 31.4745962,35.5028362 Z" id="Oval"></path>
            <path d="M74.4936171,4.69560307 C74.2380489,5.23277327 73.4052651,7.90413007 74.4936171,14.1416045 C74.7989757,14.1416045 75.2668612,13.9651334 75.7558913,13.9122207 C76.4182456,13.8405544 77.093605,13.8902179 77.2153429,13.9122207 C78.9253889,9.92632171 81.5486693,6.29874759 82.2527412,5.38190455 C82.9892391,4.42283641 84.2982367,5.77512789 83.7223406,6.45980911 C82.7312611,7.63810067 80.4132758,12.7426494 79.8133375,14.2045633 L79.7194914,14.4399963 C80.5216531,14.6371618 81.2029538,14.9732947 81.7420191,15.4672445 C85.7413295,19.1318444 82.3564151,24.074285 80.8795511,24.5273718 C77.7808267,25.4780288 75.9588159,28.29678 75.2996911,29.6913206 C71.9160442,36.850257 69.2664964,38.1057885 67.155143,39.2840067 C60.6650556,42.9057305 53.3355033,42.0511059 49.3834554,41.4927356 L49.1549094,41.4602679 C41.4178853,40.3560071 35.7535778,40.6889307 33.1290051,40.9806636 C27.8105538,41.5718332 16.1984132,41.6274321 14.4234932,39.8159445 C12.4050116,37.7558773 16.0440038,37.7558773 17.7179639,37.1725052 C22.4044646,35.5392682 22.4044646,35.5392682 24.1585015,33.8549434 C28.4581766,35.7068733 36.8288402,35.3247014 39.8964793,35.10835 C40.628867,35.0566969 41.0589832,35.0144956 41.0592617,35.0144053 C44.8539989,34.4845655 49.1549094,33.272141 53.4934042,31.2628758 C57.2127742,29.5403427 60.818716,26.1243009 62.9613278,23.6015938 C66.5253272,19.4053479 68.4663264,17.6077759 70.4598304,16.167778 L70.8024009,15.9240431 C71.203396,15.6428836 71.610321,15.3713618 72.03658,15.0931487 C71.6571648,8.10448513 72.3136317,5.82793805 72.4963319,4.69560307 C72.7813927,2.92885974 74.855027,3.93596801 74.4936171,4.69560307 Z M75.4713213,16.9303934 C74.6710749,17.1318427 74.1301768,17.7317917 74.2631912,18.2704231 C74.396209,18.8090536 75.1527689,19.0823979 75.9530181,18.8809599 C76.7532645,18.6795106 77.2941627,18.0795616 77.1611482,17.5409302 C77.0281304,17.0022997 76.2715705,16.7289554 75.4713213,16.9303934 Z" id="Combined-Shape"></path>
            <path d="M11.7524953,38.1237674 C3.91749842,38.359013 0,38.6678362 0,39.050237 C0,39.4326377 4.13902823,39.8379654 12.4170847,40.26622 L11.7524953,39.1949937 L11.7524953,38.1237674 Z" id="Path"></path>
        </g>
    </g>
</svg>