<?xml version="1.0" encoding="UTF-8"?>
<svg width="216px" height="216px" viewBox="0 0 216 216" version="1.1" xmlns="http://www.w3.org/2000/svg" xmlns:xlink="http://www.w3.org/1999/xlink">
    <title>The Sharpest Note Logo Square</title>
    <defs>
        <path d="M0,0 L216,0 L216,216 L0,216 L0,0 Z" id="path-1"></path>
    </defs>
    <g id="The-Sharpest-Note-Logo-Square" stroke="none" fill="none" xlink:href="#path-1" fill-rule="evenodd">
        <path d="M68.1160666,135.62196 L54.4350661,141.31052 C53.925108,141.522561 53.3398125,141.281051 53.1277719,140.771093 C53.066832,140.624532 53.0416549,140.465571 53.0543225,140.307352 L54.2368029,125.538085 C54.2580442,125.27278 54.1726463,125.009952 53.999519,124.8078 L44.3617153,113.554257 C44.002467,113.134783 44.0512903,112.503503 44.4707651,112.144255 C44.5913212,112.041007 44.7347227,111.967941 44.8891124,111.931096 L59.300926,108.491747 C59.5598105,108.429965 59.7833852,108.267529 59.9221433,108.040407 L67.6466535,95.3967745 C67.9345839,94.9254843 68.5500539,94.7768418 69.0213442,95.0647722 C69.1567919,95.1475227 69.270596,95.2613268 69.3533465,95.3967745 L77.0778567,108.040407 C77.2166148,108.267529 77.4401895,108.429965 77.699074,108.491747 L92.1108876,111.931096 C92.6480866,112.059297 92.9796448,112.598711 92.8514433,113.13591 C92.8145986,113.2903 92.7415318,113.433701 92.6382847,113.554257 L83.000481,124.8078 C82.8273537,125.009952 82.7419558,125.27278 82.7631971,125.538085 L83.9456775,140.307352 C83.9897544,140.857875 83.5791986,141.339893 83.0286755,141.38397 C82.8704564,141.396638 82.7114946,141.37146 82.5649339,141.31052 L68.8839334,135.62196 C68.6381767,135.519775 68.3618233,135.519775 68.1160666,135.62196 Z" id="Star" fill="#F6D868"></path>
        <path d="M127.449098,15 C129.382256,15 130.949391,16.5671345 130.949391,18.500293 L130.949391,24.1804625 C130.949391,45.6227869 141.779761,49.1359981 160.561537,64.8342988 C179.343314,80.5325996 183,94.6123833 183,111.135708 C183,127.659033 172.512841,142.089281 169.417085,146.307052 C168.78896,147.162831 168.051164,148.078212 167.274057,148.969377 L166.93881,149.349578 C163.959827,152.690606 160.561537,155.512988 160.561537,153.269244 C160.561537,152.438522 164.199853,148.151716 166.321329,143.37052 C170.236513,134.546822 174.666982,121.852207 174.666982,111.135708 C174.666982,94.6123833 164.918419,82.0689324 156.974695,76.4629999 C149.030972,70.8570673 135.449768,63.3108093 130.949391,67.0839383 L130.949391,170.724474 C130.949391,170.976946 130.922661,171.223176 130.871876,171.460486 C130.294528,181.800766 118.22671,193.116789 101.232898,198.319341 C81.6896403,204.302129 63.0321742,199.933998 59.5601375,188.56276 C56.0883155,177.191457 69.1166718,163.123115 88.6598573,157.14009 C102.606258,152.870669 116.101571,153.872447 123.949178,158.928798 L123.948805,18.500293 C123.948805,16.5671345 125.51594,15 127.449098,15 Z" id="Combined-Shape" fill="#303D53"></path>
    </g>
</svg>