<?xml version="1.0" encoding="UTF-8"?>
<svg width="1551px" height="286px" viewBox="0 0 1551 286" version="1.1" xmlns="http://www.w3.org/2000/svg" xmlns:xlink="http://www.w3.org/1999/xlink">
    <title>Frame Copy 2</title>
    <defs>
        <path d="M0,0 L1551,0 L1551,286 L0,286 L0,0 Z" id="path-1"></path>
    </defs>
    <g id="Frame-Copy-2" stroke="none" fill="none" xlink:href="#path-1" fill-rule="evenodd">
        <path d="M92.1160666,168.62196 L78.4350661,174.31052 C77.925108,174.522561 77.3398125,174.281051 77.1277719,173.771093 C77.066832,173.624532 77.0416549,173.465571 77.0543225,173.307352 L78.2368029,158.538085 C78.2580442,158.27278 78.1726463,158.009952 77.999519,157.8078 L68.3617153,146.554257 C68.002467,146.134783 68.0512903,145.503503 68.4707651,145.144255 C68.5913212,145.041007 68.7347227,144.967941 68.8891124,144.931096 L83.300926,141.491747 C83.5598105,141.429965 83.7833852,141.267529 83.9221433,141.040407 L91.6466535,128.396775 C91.9345839,127.925484 92.5500539,127.776842 93.0213442,128.064772 C93.1567919,128.147523 93.270596,128.261327 93.3533465,128.396775 L101.077857,141.040407 C101.216615,141.267529 101.440189,141.429965 101.699074,141.491747 L116.110888,144.931096 C116.648087,145.059297 116.979645,145.598711 116.851443,146.13591 C116.814599,146.2903 116.741532,146.433701 116.638285,146.554257 L107.000481,157.8078 C106.827354,158.009952 106.741956,158.27278 106.763197,158.538085 L107.945678,173.307352 C107.989754,173.857875 107.579199,174.339893 107.028675,174.38397 C106.870456,174.396638 106.711495,174.37146 106.564934,174.31052 L92.8839334,168.62196 C92.6381767,168.519775 92.3618233,168.519775 92.1160666,168.62196 Z" id="Star" fill="#F6D868"></path>
        <path d="M151.449013,48 C153.382175,48 154.949311,49.5671369 154.949311,51.5002983 L154.949311,57.1804885 C154.949311,78.6228736 165.779698,82.1360946 184.561503,97.8344398 C203.343308,113.532785 207,127.612608 207,144.13598 C207,160.659352 196.512825,175.089641 193.417064,179.307423 C190.321304,183.525206 184.561503,189.190744 184.561503,186.269636 C184.561503,185.438911 188.199825,181.152093 190.321304,176.370884 C194.236494,167.54716 198.66697,154.852509 198.66697,144.13598 C198.66697,127.612608 188.918391,115.069122 180.974656,109.463174 C173.030921,103.857225 159.449695,96.310946 154.949311,100.084086 L154.949311,203.724919 C154.949311,203.980209 154.921982,204.229115 154.870088,204.468873 C154.287645,214.806663 142.221803,226.118031 125.23264,231.319389 C105.689548,237.301878 87.0323373,232.933884 83.5600142,221.562991 C80.0886308,210.191811 93.1168556,196.123712 112.659726,190.140501 C126.606012,185.871306 140.101161,186.873079 147.94884,191.929268 L147.948715,51.5002983 C147.948715,49.5671369 149.515852,48 151.449013,48 Z" id="Combined-Shape" fill="#303D53"></path>
        <g id="The-Sharpest-Note" stroke-width="1" transform="translate(257, 26)" fill="#303D53">
            <polygon id="Path" fill-rule="nonzero" points="32.34 175 32.34 171.7 48.84 166.75 48.84 73.855 19.8 73.855 10.395 98.11 7.425 98.11 7.425 66.1 103.125 66.1 103.125 98.11 100.155 98.11 90.75 73.855 61.71 73.855 61.71 166.75 78.21 171.7 78.21 175"></polygon>
            <path d="M111.81,175 L111.81,172.36 L122.205,168.235 L122.205,65.605 L111.48,59.17 L111.48,57.52 L132.105,51.25 L133.425,51.25 L133.425,111.145 L133.92,111.145 C138.1,107.075 142.0875,104.05 145.8825,102.07 C149.6775,100.09 153.885,99.1 158.505,99.1 C165.105,99.1 170.55,100.86 174.84,104.38 C179.13,107.9 181.275,113.015 181.275,119.725 L181.275,168.235 L191.67,172.36 L191.67,175 L158.34,175 L158.34,172.36 L170.055,168.4 L170.055,126.16 C170.055,120.55 168.405,116.2875 165.105,113.3725 C161.805,110.4575 157.57,109 152.4,109 C149.32,109 145.9375,109.6325 142.2525,110.8975 C138.5675,112.1625 135.625,113.95 133.425,116.26 L133.425,168.4 L145.14,172.36 L145.14,175 L111.81,175 Z" id="Path" fill-rule="nonzero"></path>
            <path d="M235.17,176.65 C227.8,176.65 221.5025,175.11 216.2775,172.03 C211.0525,168.95 207.065,164.6875 204.315,159.2425 C201.565,153.7975 200.19,147.5 200.19,140.35 C200.19,132.43 201.785,125.3625 204.975,119.1475 C208.165,112.9325 212.4,108.0375 217.68,104.4625 C222.96,100.8875 228.68,99.1 234.84,99.1 C243.53,99.1 250.35,102.07 255.3,108.01 C260.25,113.95 262.89,122.31 263.22,133.09 L262.56,133.75 L211.245,133.75 C211.245,134.19 211.245,134.63 211.245,135.07 C211.245,140.79 212.235,146.0425 214.215,150.8275 C216.195,155.6125 219.33,159.4075 223.62,162.2125 C227.91,165.0175 233.465,166.42 240.285,166.42 C248.425,166.42 255.905,164 262.725,159.16 L263.22,159.16 L263.22,160.975 C260.8,165.375 257.1425,169.0875 252.2475,172.1125 C247.3525,175.1375 241.66,176.65 235.17,176.65 Z M232.365,104.875 C227.085,104.875 222.575,106.8825 218.835,110.8975 C215.095,114.9125 212.73,120.55 211.74,127.81 L252,127.81 C249.8,112.52 243.255,104.875 232.365,104.875 Z" id="Shape" fill-rule="nonzero"></path>
            <path d="M343.785,176.65 C337.185,176.65 331.575,176.0175 326.955,174.7525 C322.335,173.4875 317.495,171.59 312.435,169.06 L310.785,142.66 L313.59,142.66 L322.17,161.635 C326.13,164.715 329.925,166.8875 333.555,168.1525 C337.185,169.4175 340.87,170.05 344.61,170.05 C351.43,170.05 356.71,168.235 360.45,164.605 C364.19,160.975 366.06,155.97 366.06,149.59 C366.06,144.64 364.905,140.735 362.595,137.875 C360.285,135.015 357.0125,132.485 352.7775,130.285 C348.5425,128.085 343.565,125.555 337.845,122.695 C332.785,120.165 328.55,117.635 325.14,115.105 C321.73,112.575 319.1175,109.66 317.3025,106.36 C315.4875,103.06 314.58,98.935 314.58,93.985 C314.58,90.355 315.46,86.78 317.22,83.26 C318.98,79.74 321.3725,76.5775 324.3975,73.7725 C327.4225,70.9675 330.8325,68.7125 334.6275,67.0075 C338.4225,65.3025 342.355,64.45 346.425,64.45 C351.485,64.45 356.0775,65.055 360.2025,66.265 C364.3275,67.475 368.59,69.18 372.99,71.38 L374.64,97.12 L371.835,97.12 L364.575,78.97 C361.165,76.11 358.0575,74.1025 355.2525,72.9475 C352.4475,71.7925 349.23,71.215 345.6,71.215 C339.88,71.215 335.37,72.9475 332.07,76.4125 C328.77,79.8775 327.12,84.195 327.12,89.365 C327.12,93.215 327.9175,96.4875 329.5125,99.1825 C331.1075,101.8775 333.555,104.3525 336.855,106.6075 C340.155,108.8625 344.335,111.2 349.395,113.62 C355.995,116.81 361.44,119.835 365.73,122.695 C370.02,125.555 373.21,128.8275 375.3,132.5125 C377.39,136.1975 378.435,140.845 378.435,146.455 C378.435,151.185 377.39,155.42 375.3,159.16 C373.21,162.9 370.46,166.0625 367.05,168.6475 C363.64,171.2325 359.9,173.2125 355.83,174.5875 C351.76,175.9625 347.745,176.65 343.785,176.65 Z" id="Path" fill-rule="nonzero"></path>
            <path d="M390.09,175 L390.09,172.36 L400.485,168.235 L400.485,65.605 L389.76,59.17 L389.76,57.52 L410.385,51.25 L411.705,51.25 L411.705,111.145 L412.2,111.145 C416.38,107.075 420.3675,104.05 424.1625,102.07 C427.9575,100.09 432.165,99.1 436.785,99.1 C443.385,99.1 448.83,100.86 453.12,104.38 C457.41,107.9 459.555,113.015 459.555,119.725 L459.555,168.235 L469.95,172.36 L469.95,175 L436.62,175 L436.62,172.36 L448.335,168.4 L448.335,126.16 C448.335,120.55 446.685,116.2875 443.385,113.3725 C440.085,110.4575 435.85,109 430.68,109 C427.6,109 424.2175,109.6325 420.5325,110.8975 C416.8475,112.1625 413.905,113.95 411.705,116.26 L411.705,168.4 L423.42,172.36 L423.42,175 L390.09,175 Z" id="Path" fill-rule="nonzero"></path>
            <path d="M495.465,176.65 C490.295,176.65 486.005,175.1375 482.595,172.1125 C479.185,169.0875 477.48,164.88 477.48,159.49 C477.48,154.1 479.46,149.535 483.42,145.795 C487.38,142.055 493.925,139.085 503.055,136.885 L519.06,132.925 L519.06,120.22 C519.06,116.04 517.4375,112.575 514.1925,109.825 C510.9475,107.075 507.345,105.7 503.385,105.7 C498.985,105.7 495.905,106.745 494.145,108.835 C492.385,110.925 491.505,113.785 491.505,117.415 L491.505,122.86 L490.68,123.685 L483.75,123.685 C482.1,123.685 480.9725,123.4375 480.3675,122.9425 C479.7625,122.4475 479.46,121.265 479.46,119.395 C479.46,117.085 480.175,114.72 481.605,112.3 C483.035,109.88 485.18,107.79 488.04,106.03 C491.12,104.05 494.2825,102.4 497.5275,101.08 C500.7725,99.76 504.045,99.1 507.345,99.1 C511.525,99.1 515.32,99.6775 518.73,100.8325 C522.14,101.9875 524.89,103.885 526.98,106.525 C529.07,109.165 530.115,112.685 530.115,117.085 L530.115,165.76 C530.995,166.64 532.095,167.3 533.415,167.74 C534.735,168.18 536.44,168.4 538.53,168.4 L545.79,168.4 L546.12,168.73 L546.12,169.06 C545.02,170.93 543.3425,172.6625 541.0875,174.2575 C538.8325,175.8525 536,176.65 532.59,176.65 C529.07,176.65 526.265,175.715 524.175,173.845 C522.085,171.975 520.655,169.61 519.885,166.75 L519.06,166.75 C516.2,169.61 512.7075,171.975 508.5825,173.845 C504.4575,175.715 500.085,176.65 495.465,176.65 Z M488.535,156.355 C488.535,160.205 489.69,163.0925 492,165.0175 C494.31,166.9425 497.555,167.905 501.735,167.905 C504.485,167.905 507.29,167.575 510.15,166.915 C513.01,166.255 515.98,165.155 519.06,163.615 L519.06,137.71 C510.15,139.47 503.5225,141.285 499.1775,143.155 C494.8325,145.025 491.9725,147.0325 490.5975,149.1775 C489.2225,151.3225 488.535,153.715 488.535,156.355 Z" id="Shape" fill-rule="nonzero"></path>
            <path d="M551.175,175 L551.175,172.36 L561.57,168.235 L561.57,113.455 L550.845,107.845 L550.845,106.03 L570.15,99.1 L571.47,99.1 L572.625,113.455 L573.12,113.455 C576.42,109.165 579.1975,106.0025 581.4525,103.9675 C583.7075,101.9325 585.77,100.6125 587.64,100.0075 C589.51,99.4025 591.38,99.1 593.25,99.1 C594.13,99.1 595.12,99.2375 596.22,99.5125 C597.32,99.7875 598.2,100.09 598.86,100.42 C600.07,100.86 601.06,101.41 601.83,102.07 C602.6,102.73 602.985,103.445 602.985,104.215 C602.985,104.545 602.9575,104.93 602.9025,105.37 C602.8475,105.81 602.71,106.25 602.49,106.69 L599.85,113.29 L599.025,113.29 L594.075,111.145 C592.095,110.375 589.895,109.99 587.475,109.99 C584.725,109.99 582.14,110.705 579.72,112.135 C577.3,113.565 574.99,115.93 572.79,119.23 L572.79,168.235 L584.835,172.36 L584.835,175 L551.175,175 Z" id="Path" fill-rule="nonzero"></path>
            <path d="M607.545,212.95 L607.545,210.31 L617.94,206.185 L617.94,113.455 L607.215,107.845 L607.215,106.03 L626.52,99.1 L627.84,99.1 L628.83,109.165 L629.82,109.165 C634,105.645 638.0425,103.0875 641.9475,101.4925 C645.8525,99.8975 650.06,99.1 654.57,99.1 C660.07,99.1 664.965,100.53 669.255,103.39 C673.545,106.25 676.9275,110.2925 679.4025,115.5175 C681.8775,120.7425 683.115,126.985 683.115,134.245 C683.115,143.265 681.41,150.9375 678,157.2625 C674.59,163.5875 670.025,168.4 664.305,171.7 C658.585,175 652.26,176.65 645.33,176.65 C642.36,176.65 639.5275,176.4025 636.8325,175.9075 C634.1375,175.4125 631.58,174.78 629.16,174.01 L629.16,206.185 L640.875,210.31 L640.875,212.95 L607.545,212.95 Z M647.31,108.175 C640.71,108.175 634.66,110.265 629.16,114.445 L629.16,163.285 C632.46,165.815 635.815,167.6025 639.225,168.6475 C642.635,169.6925 646.375,170.215 650.445,170.215 C654.405,170.215 658.035,169.17 661.335,167.08 C664.635,164.99 667.275,161.6075 669.255,156.9325 C671.235,152.2575 672.225,146.125 672.225,138.535 C672.225,131.495 671.07,125.7475 668.76,121.2925 C666.45,116.8375 663.3975,113.5375 659.6025,111.3925 C655.8075,109.2475 651.71,108.175 647.31,108.175 Z" id="Shape" fill-rule="nonzero"></path>
            <path d="M730.08,176.65 C722.71,176.65 716.4125,175.11 711.1875,172.03 C705.9625,168.95 701.975,164.6875 699.225,159.2425 C696.475,153.7975 695.1,147.5 695.1,140.35 C695.1,132.43 696.695,125.3625 699.885,119.1475 C703.075,112.9325 707.31,108.0375 712.59,104.4625 C717.87,100.8875 723.59,99.1 729.75,99.1 C738.44,99.1 745.26,102.07 750.21,108.01 C755.16,113.95 757.8,122.31 758.13,133.09 L757.47,133.75 L706.155,133.75 C706.155,134.19 706.155,134.63 706.155,135.07 C706.155,140.79 707.145,146.0425 709.125,150.8275 C711.105,155.6125 714.24,159.4075 718.53,162.2125 C722.82,165.0175 728.375,166.42 735.195,166.42 C743.335,166.42 750.815,164 757.635,159.16 L758.13,159.16 L758.13,160.975 C755.71,165.375 752.0525,169.0875 747.1575,172.1125 C742.2625,175.1375 736.57,176.65 730.08,176.65 Z M727.275,104.875 C721.995,104.875 717.485,106.8825 713.745,110.8975 C710.005,114.9125 707.64,120.55 706.65,127.81 L746.91,127.81 C744.71,112.52 738.165,104.875 727.275,104.875 Z" id="Shape" fill-rule="nonzero"></path>
            <path d="M793.545,176.65 C788.925,176.65 784.8825,176.21 781.4175,175.33 C777.9525,174.45 774.46,173.13 770.94,171.37 L770.94,153.385 L773.085,153.385 L777.21,161.8 C778.64,164.88 780.7025,167.2725 783.3975,168.9775 C786.0925,170.6825 789.585,171.535 793.875,171.535 C798.715,171.535 802.4275,170.4075 805.0125,168.1525 C807.5975,165.8975 808.89,162.68 808.89,158.5 C808.89,153.99 807.405,150.635 804.435,148.435 C801.465,146.235 797.065,143.87 791.235,141.34 C785.185,138.81 780.62,136.005 777.54,132.925 C774.46,129.845 772.92,125.5 772.92,119.89 C772.92,116.15 773.9925,112.685 776.1375,109.495 C778.2825,106.305 781.06,103.775 784.47,101.905 C787.88,100.035 791.455,99.1 795.195,99.1 C799.375,99.1 803.115,99.595 806.415,100.585 C809.715,101.575 812.85,102.84 815.82,104.38 L815.82,121.87 L813.675,121.87 L809.55,113.785 C808.12,110.375 806.1125,107.955 803.5275,106.525 C800.9425,105.095 798.275,104.38 795.525,104.38 C791.565,104.38 788.4575,105.4525 786.2025,107.5975 C783.9475,109.7425 782.82,112.63 782.82,116.26 C782.82,120 784.1125,122.9425 786.6975,125.0875 C789.2825,127.2325 793.215,129.46 798.495,131.77 C802.235,133.42 805.645,135.0975 808.725,136.8025 C811.805,138.5075 814.2525,140.735 816.0675,143.485 C817.8825,146.235 818.79,150.03 818.79,154.87 C818.79,159.27 817.58,163.0925 815.16,166.3375 C812.74,169.5825 809.605,172.1125 805.755,173.9275 C801.905,175.7425 797.835,176.65 793.545,176.65 Z" id="Path" fill-rule="nonzero"></path>
            <path d="M856.68,176.65 C851.95,176.65 847.9625,175.22 844.7175,172.36 C841.4725,169.5 839.85,165.485 839.85,160.315 L839.85,107.68 L825.99,107.68 L825.99,106.36 L840.675,100.75 L849.75,82.6 L851.07,82.6 L851.07,100.75 L872.85,100.75 L872.85,107.68 L851.07,107.68 L851.07,158.5 C851.07,161.58 852.225,163.8625 854.535,165.3475 C856.845,166.8325 859.76,167.575 863.28,167.575 C865.48,167.575 867.515,167.3825 869.385,166.9975 C871.255,166.6125 872.96,166.145 874.5,165.595 L874.83,165.76 L874.83,166.915 C873.73,169.115 871.6675,171.2875 868.6425,173.4325 C865.6175,175.5775 861.63,176.65 856.68,176.65 Z" id="Path" fill-rule="nonzero"></path>
            <polygon id="Path" fill-rule="nonzero" points="919.26 175 919.26 171.7 932.295 166.75 932.295 74.515 919.425 69.4 919.425 66.1 942.525 66.1 1007.205 150.085 1007.205 74.185 991.695 69.4 991.695 66.1 1029.645 66.1 1029.645 69.4 1016.61 74.35 1016.61 175.825 1011.495 175.825 941.865 85.9 941.865 166.585 957.705 171.7 957.705 175"></polygon>
            <path d="M1069.075,176.65 C1062.035,176.65 1055.875,174.945 1050.595,171.535 C1045.315,168.125 1041.19,163.505 1038.22,157.675 C1035.25,151.845 1033.765,145.245 1033.765,137.875 C1033.765,130.505 1035.25,123.905 1038.22,118.075 C1041.19,112.245 1045.315,107.625 1050.595,104.215 C1055.875,100.805 1062.035,99.1 1069.075,99.1 C1076.115,99.1 1082.275,100.805 1087.555,104.215 C1092.835,107.625 1096.96,112.245 1099.93,118.075 C1102.9,123.905 1104.385,130.505 1104.385,137.875 C1104.385,145.245 1102.9,151.845 1099.93,157.675 C1096.96,163.505 1092.835,168.125 1087.555,171.535 C1082.275,174.945 1076.115,176.65 1069.075,176.65 Z M1071.385,170.875 C1076.005,170.875 1079.855,169.445 1082.935,166.585 C1086.015,163.725 1088.325,160.0125 1089.865,155.4475 C1091.405,150.8825 1092.175,146.125 1092.175,141.175 C1092.175,134.905 1091.2675,128.9925 1089.4525,123.4375 C1087.6375,117.8825 1084.8875,113.3725 1081.2025,109.9075 C1077.5175,106.4425 1072.815,104.71 1067.095,104.71 C1062.475,104.71 1058.5975,106.085 1055.4625,108.835 C1052.3275,111.585 1049.9625,115.215 1048.3675,119.725 C1046.7725,124.235 1045.975,129.13 1045.975,134.41 C1045.975,140.79 1046.91,146.7575 1048.78,152.3125 C1050.65,157.8675 1053.455,162.35 1057.195,165.76 C1060.935,169.17 1065.665,170.875 1071.385,170.875 Z" id="Shape" fill-rule="nonzero"></path>
            <path d="M1138.195,176.65 C1133.465,176.65 1129.4775,175.22 1126.2325,172.36 C1122.9875,169.5 1121.365,165.485 1121.365,160.315 L1121.365,107.68 L1107.505,107.68 L1107.505,106.36 L1122.19,100.75 L1131.265,82.6 L1132.585,82.6 L1132.585,100.75 L1154.365,100.75 L1154.365,107.68 L1132.585,107.68 L1132.585,158.5 C1132.585,161.58 1133.74,163.8625 1136.05,165.3475 C1138.36,166.8325 1141.275,167.575 1144.795,167.575 C1146.995,167.575 1149.03,167.3825 1150.9,166.9975 C1152.77,166.6125 1154.475,166.145 1156.015,165.595 L1156.345,165.76 L1156.345,166.915 C1155.245,169.115 1153.1825,171.2875 1150.1575,173.4325 C1147.1325,175.5775 1143.145,176.65 1138.195,176.65 Z" id="Path" fill-rule="nonzero"></path>
            <path d="M1198.525,176.65 C1191.155,176.65 1184.8575,175.11 1179.6325,172.03 C1174.4075,168.95 1170.42,164.6875 1167.67,159.2425 C1164.92,153.7975 1163.545,147.5 1163.545,140.35 C1163.545,132.43 1165.14,125.3625 1168.33,119.1475 C1171.52,112.9325 1175.755,108.0375 1181.035,104.4625 C1186.315,100.8875 1192.035,99.1 1198.195,99.1 C1206.885,99.1 1213.705,102.07 1218.655,108.01 C1223.605,113.95 1226.245,122.31 1226.575,133.09 L1225.915,133.75 L1174.6,133.75 C1174.6,134.19 1174.6,134.63 1174.6,135.07 C1174.6,140.79 1175.59,146.0425 1177.57,150.8275 C1179.55,155.6125 1182.685,159.4075 1186.975,162.2125 C1191.265,165.0175 1196.82,166.42 1203.64,166.42 C1211.78,166.42 1219.26,164 1226.08,159.16 L1226.575,159.16 L1226.575,160.975 C1224.155,165.375 1220.4975,169.0875 1215.6025,172.1125 C1210.7075,175.1375 1205.015,176.65 1198.525,176.65 Z M1195.72,104.875 C1190.44,104.875 1185.93,106.8825 1182.19,110.8975 C1178.45,114.9125 1176.085,120.55 1175.095,127.81 L1215.355,127.81 C1213.155,112.52 1206.61,104.875 1195.72,104.875 Z" id="Shape" fill-rule="nonzero"></path>
        </g>
    </g>
</svg>