<?xml version="1.0" encoding="UTF-8"?>
<svg width="216px" height="216px" viewBox="0 0 216 216" version="1.1" xmlns="http://www.w3.org/2000/svg" xmlns:xlink="http://www.w3.org/1999/xlink">
    <title>The Sharpest Note Logo Square</title>
    <defs>
        <path d="M0,0 L216,0 L216,216 L0,216 L0,0 Z" id="path-1"></path>
    </defs>
    <g id="The-Sharpest-Note-Logo-Square" stroke="none" fill="none" xlink:href="#path-1" fill-rule="evenodd">
        <path d="M67.9544705,123.396297 L53.7252767,132.658344 C53.2624114,132.959632 52.6429432,132.828647 52.3416556,132.365782 C52.1257778,132.034131 52.1257778,131.606374 52.3416556,131.274723 L61.6037031,117.045529 C61.8195809,116.713878 61.8195809,116.286122 61.6037031,115.954471 L52.3416556,101.725277 C52.040368,101.262411 52.1713525,100.642943 52.6342177,100.341656 C52.9658687,100.125778 53.3936257,100.125778 53.7252767,100.341656 L67.9544705,109.603703 C68.2861215,109.819581 68.7138785,109.819581 69.0455295,109.603703 L83.2747233,100.341656 C83.7375886,100.040368 84.3570568,100.171353 84.6583444,100.634218 C84.8742222,100.965869 84.8742222,101.393626 84.6583444,101.725277 L75.3962969,115.954471 C75.1804191,116.286122 75.1804191,116.713878 75.3962969,117.045529 L84.6583444,131.274723 C84.959632,131.737589 84.8286475,132.357057 84.3657823,132.658344 C84.0341313,132.874222 83.6063743,132.874222 83.2747233,132.658344 L69.0455295,123.396297 C68.7138785,123.180419 68.2861215,123.180419 67.9544705,123.396297 Z" id="Star" fill="#F6D868" transform="translate(68.5, 116.5) rotate(45) translate(-68.5, -116.5)"></path>
        <path d="M127.449098,15 C129.382256,15 130.949391,16.5671345 130.949391,18.500293 L130.949391,24.1804625 C130.949391,45.6227869 141.779761,49.1359981 160.561537,64.8342988 C179.343314,80.5325996 183,94.6123833 183,111.135708 C183,127.659033 172.512841,142.089281 169.417085,146.307052 C168.78896,147.162831 168.051164,148.078212 167.274057,148.969377 L166.93881,149.349578 C163.959827,152.690606 160.561537,155.512988 160.561537,153.269244 C160.561537,152.438522 164.199853,148.151716 166.321329,143.37052 C170.236513,134.546822 174.666982,121.852207 174.666982,111.135708 C174.666982,94.6123833 164.918419,82.0689324 156.974695,76.4629999 C149.030972,70.8570673 135.449768,63.3108093 130.949391,67.0839383 L130.949391,170.724474 C130.949391,170.976946 130.922661,171.223176 130.871876,171.460486 C130.294528,181.800766 118.22671,193.116789 101.232898,198.319341 C81.6896403,204.302129 63.0321742,199.933998 59.5601375,188.56276 C56.0883155,177.191457 69.1166718,163.123115 88.6598573,157.14009 C102.606258,152.870669 116.101571,153.872447 123.949178,158.928798 L123.948805,18.500293 C123.948805,16.5671345 125.51594,15 127.449098,15 Z" id="Combined-Shape" fill="#303D53"></path>
    </g>
</svg>