<?xml version="1.0" encoding="UTF-8"?>
<svg width="128px" height="83px" viewBox="0 0 128 83" version="1.1" xmlns="http://www.w3.org/2000/svg" xmlns:xlink="http://www.w3.org/1999/xlink">
    <title>track-backing-negative</title>
    <defs>
        <path d="M0,0 L128,0 L128,83 L0,83 L0,0 Z" id="path-1"></path>
    </defs>
    <g id="track-backing-negative" stroke="none" fill="none" xlink:href="#path-1" fill-rule="evenodd" stroke-width="1">
        <g id="Group" transform="translate(-59, -23)">
            <rect id="Rectangle-2-Copy-3" stroke="#FFFFFF" stroke-width="2" fill="#303D53" x="76" y="42" width="13.1171875" height="46" rx="3"></rect>
            <rect id="Rectangle-2-Copy-4" stroke="#FFFFFF" stroke-width="2" fill="#303D53" x="89.65625" y="42" width="13.1171875" height="46" rx="3"></rect>
            <rect id="Rectangle-2-Copy-6" stroke="#FFFFFF" stroke-width="2" fill="#303D53" x="102.960938" y="42" width="13.1171875" height="46" rx="3"></rect>
            <rect id="Rectangle-2-Copy-5" stroke="#FFFFFF" stroke-width="2" fill="#303D53" x="116.617188" y="42" width="13.1171875" height="46" rx="3"></rect>
            <rect id="Rectangle-2-Copy-8" stroke="#FFFFFF" stroke-width="2" fill="#303D53" x="129.921875" y="42" width="13.1171875" height="46" rx="3"></rect>
            <rect id="Rectangle-2-Copy-7" stroke="#FFFFFF" stroke-width="2" fill="#303D53" x="143.578125" y="42" width="13.1171875" height="46" rx="3"></rect>
            <rect id="Rectangle-2-Copy-13" stroke="#FFFFFF" stroke-width="2" fill="#303D53" x="156.882812" y="42" width="13.1171875" height="46" rx="3"></rect>
            <rect id="Rectangle-2-Copy-9" fill="#FFFFFF" x="85" y="41" width="8.4375" height="27.9148936" rx="1"></rect>
            <rect id="Rectangle-2-Copy-10" fill="#FFFFFF" x="98.796875" y="41" width="8.4375" height="27.9148936" rx="1"></rect>
            <rect id="Rectangle-2-Copy-12" fill="#FFFFFF" x="125.5" y="41" width="8.4375" height="27.9148936" rx="1"></rect>
            <rect id="Rectangle-2-Copy-11" fill="#FFFFFF" x="139" y="41" width="8.4375" height="27.9148936" rx="1"></rect>
            <rect id="Rectangle-2-Copy-14" fill="#FFFFFF" x="152.6" y="41" width="8.4375" height="27.9148936" rx="1"></rect>
        </g>
    </g>
</svg>