<?xml version="1.0" encoding="UTF-8"?>
<svg width="84px" height="84px" viewBox="0 0 84 84" version="1.1" xmlns="http://www.w3.org/2000/svg" xmlns:xlink="http://www.w3.org/1999/xlink">
    <title>trash_icon</title>
    <defs>
        <path d="M0,0 L84,0 L84,84 L0,84 L0,0 Z" id="path-1"></path>
    </defs>
    <g id="trash_icon" stroke="none" fill="none" xlink:href="#path-1" fill-rule="evenodd" stroke-width="1">
        <g id="Group" transform="translate(21, 6.1379)">
            <g transform="translate(0, 18.4227)">
                <path d="M41,4.70215154 L41,48.0127622 C33.5102637,49.629195 26.5537507,50.4393936 20.1300658,50.4393936 C13.7502019,50.4393936 7.37355246,49.639618 1,48.0409994 L1,4.73827046 C7.08074453,6.28611585 13.5350319,7.06134566 20.3632302,7.06134566 C27.2398678,7.06134566 34.1188185,6.27518093 41,4.70215154 Z" id="Rectangle-2" stroke="#303D53" stroke-width="2"></path>
                <ellipse id="Oval" stroke="#303D53" stroke-width="2" cx="21" cy="3.93939363" rx="20" ry="2.5"></ellipse>
                <g transform="translate(3, 5.4394)" fill="#303D53">
                    <path d="M0.606942966,0 C0.942148311,-6.15762228e-17 1.21388593,0.271737622 1.21388593,0.606942966 L1.21388593,42.1708348 C1.21388593,42.5060402 0.942148311,42.7777778 0.606942966,42.7777778 C0.271737622,42.7777778 1.24177073e-15,42.5060402 1.22124533e-15,42.1708348 L0,0.606942966 C-4.10508152e-17,0.271737622 0.271737622,4.10508152e-17 0.606942966,0 Z" id="Rectangle"></path>
                    <path d="M5.57638783,1.7111112 C5.91159318,1.7111112 6.1833308,1.98284882 6.1833308,2.31805417 L6.1833308,42.6597238 C6.1833308,42.9949291 5.91159318,43.2666668 5.57638783,43.2666668 C5.24118249,43.2666668 4.96944487,42.9949291 4.96944487,42.6597238 L4.96944487,2.31805417 C4.96944487,1.98284882 5.24118249,1.7111112 5.57638783,1.7111112 Z" id="Rectangle-Copy-2"></path>
                    <path d="M10.5458327,2.20000009 C10.881038,2.20000009 11.1527757,2.47173771 11.1527757,2.80694306 L11.1527757,43.1486127 C11.1527757,43.483818 10.881038,43.7555556 10.5458327,43.7555556 C10.2106274,43.7555556 9.93888973,43.483818 9.93888973,43.1486127 L9.93888973,2.80694306 C9.93888973,2.47173771 10.2106274,2.20000009 10.5458327,2.20000009 Z" id="Rectangle-Copy-4"></path>
                    <path d="M15.5152776,2.44444444 C15.8504829,2.44444444 16.1222205,2.71618207 16.1222205,3.05138741 L16.1222205,43.393057 C16.1222205,43.7282624 15.8504829,44 15.5152776,44 C15.1800722,44 14.9083346,43.7282624 14.9083346,43.393057 L14.9083346,3.05138741 C14.9083346,2.71618207 15.1800722,2.44444444 15.5152776,2.44444444 Z" id="Rectangle-Copy-6"></path>
                    <path d="M20.4847224,2.44444444 C20.8199278,2.44444444 21.0916654,2.71618207 21.0916654,3.05138741 L21.0916654,43.393057 C21.0916654,43.7282624 20.8199278,44 20.4847224,44 C20.1495171,44 19.8777795,43.7282624 19.8777795,43.393057 L19.8777795,3.05138741 C19.8777795,2.71618207 20.1495171,2.44444444 20.4847224,2.44444444 Z" id="Rectangle-Copy-8"></path>
                    <path d="M25.4541673,2.20000009 C25.7893726,2.20000009 26.0611103,2.47173771 26.0611103,2.80694306 L26.0611103,43.1486127 C26.0611103,43.483818 25.7893726,43.7555556 25.4541673,43.7555556 C25.118962,43.7555556 24.8472243,43.483818 24.8472243,43.1486127 L24.8472243,2.80694306 C24.8472243,2.47173771 25.118962,2.20000009 25.4541673,2.20000009 Z" id="Rectangle-Copy-10"></path>
                    <path d="M30.4236122,1.7111112 C30.7588175,1.7111112 31.0305551,1.98284882 31.0305551,2.31805417 L31.0305551,42.6597238 C31.0305551,42.9949291 30.7588175,43.2666668 30.4236122,43.2666668 C30.0884068,43.2666668 29.8166692,42.9949291 29.8166692,42.6597238 L29.8166692,2.31805417 C29.8166692,1.98284882 30.0884068,1.7111112 30.4236122,1.7111112 Z" id="Rectangle-Copy-12"></path>
                    <path d="M35.393057,0 C35.7282624,-6.15762228e-17 36,0.271737622 36,0.606942966 L36,42.1708348 C36,42.5060402 35.7282624,42.7777778 35.393057,42.7777778 C35.0578517,42.7777778 34.7861141,42.5060402 34.7861141,42.1708348 L34.7861141,0.606942966 C34.7861141,0.271737622 35.0578517,4.10508152e-17 35.393057,0 Z" id="Rectangle-Copy-14"></path>
                </g>
            </g>
            <path d="M18.5,6.86213314 C18.7761424,6.86213314 19,7.08599077 19,7.36213314 L19,26.3621331 C19,26.6382755 18.7761424,26.8621331 18.5,26.8621331 C18.2238576,26.8621331 18,26.6382755 18,26.3621331 L18,7.36213314 C18,7.08599077 18.2238576,6.86213314 18.5,6.86213314 Z M32.5,0.86213314 C32.7761424,0.86213314 33,1.08599077 33,1.36213314 L33.0009234,18.5727533 C33.0932375,18.7208562 33.1648133,18.8802141 33.213596,19.0503992 C33.7147972,20.7989076 31.6202133,23.0281842 28.5352118,24.0296277 C25.4502104,25.0310712 22.5430186,24.4254555 22.0418174,22.6769471 C21.5406161,20.9284387 23.6352,18.6991622 26.7202015,17.6977186 C28.7808418,17.0288001 30.7621499,17.0768919 32.0000911,17.7036649 L32,1.36213314 C32,1.08599077 32.2238576,0.86213314 32.5,0.86213314 Z" id="Combined-Shape-Copy-3" fill="#303D53"></path>
        </g>
    </g>
</svg>