<?xml version="1.0" encoding="UTF-8"?>
<svg width="84px" height="84px" viewBox="0 0 84 84" version="1.1" xmlns="http://www.w3.org/2000/svg" xmlns:xlink="http://www.w3.org/1999/xlink">
    <title>trash_icon</title>
    <defs>
        <path d="M0,0 L84,0 L84,84 L0,84 L0,0 Z" id="path-1"></path>
    </defs>
    <g id="trash_icon" stroke="none" fill="none" xlink:href="#path-1" fill-rule="evenodd" stroke-width="1">
        <g id="Group" transform="translate(21, 6.1379)">
            <g transform="translate(0, 18.4227)">
                <path d="M41,4.91334208 L41,48.1226178 C33.5074187,50.8775677 26.551509,52.2618861 20.1300658,52.2618861 C13.7497087,52.2618861 7.37350138,50.892875 1,48.1620233 L1,4.98080632 C7.08390754,7.58213888 13.5381631,8.88383808 20.3632302,8.88383808 C27.2395521,8.88383808 34.118794,7.56202226 41,4.91334208 Z" id="Rectangle-2" stroke="#303D53" stroke-width="2"></path>
                <path d="M21,0.164921418 C26.2748017,0.164921418 31.0883367,0.760337564 34.74011,1.59058948 C36.8029425,2.05958644 38.4875668,2.59999422 39.6575489,3.15254044 C40.172826,3.39588979 40.5788096,3.63348503 40.8496698,3.87262324 C40.4502826,4.42844937 39.9815984,4.73527153 39.386785,5.05257882 C38.1302517,5.72288522 36.3476645,6.40797463 34.1828764,7.00378456 C30.6117543,7.98665675 26.0151978,8.71917812 21,8.71917812 C15.9848022,8.71917812 11.3882457,7.98665675 7.81712361,7.00378456 C5.65233553,6.40797463 3.86974834,5.72288522 2.613215,5.05257882 C2.01840165,4.73527153 1.54971745,4.42844937 1.2346286,4.13498601 C1.42119036,3.63348503 1.82717401,3.39588979 2.34245106,3.15254044 C3.51243315,2.59999422 5.19705754,2.05958644 7.25988997,1.59058948 C10.9116633,0.760337564 15.7251983,0.164921418 21,0.164921418 Z" id="Oval" stroke="#303D53" stroke-width="2"></path>
                <g transform="translate(3, 4.4394)" fill="#303D53">
                    <path d="M0.5,0 C0.776142375,-5.07265313e-17 1,0.223857625 1,0.5 L1,44.5 C1,44.7761424 0.776142375,45 0.5,45 C0.223857625,45 1.69088438e-17,44.7761424 0,44.5 L0,0.5 C-3.38176876e-17,0.223857625 0.223857625,3.38176876e-17 0.5,0 Z" id="Rectangle"></path>
                    <path d="M5.5,3 C5.77614237,3 6,3.22385763 6,3.5 L6,45.5 C6,45.7761424 5.77614237,46 5.5,46 C5.22385763,46 5,45.7761424 5,45.5 L5,3.5 C5,3.22385763 5.22385763,3 5.5,3 Z" id="Rectangle-Copy-2"></path>
                    <path d="M10.5,4 C10.7761424,4 11,4.22385763 11,4.5 L11,46.5 C11,46.7761424 10.7761424,47 10.5,47 C10.2238576,47 10,46.7761424 10,46.5 L10,4.5 C10,4.22385763 10.2238576,4 10.5,4 Z" id="Rectangle-Copy-4"></path>
                    <path d="M15.5,5 C15.7761424,5 16,5.22385763 16,5.5 L16,47.5 C16,47.7761424 15.7761424,48 15.5,48 C15.2238576,48 15,47.7761424 15,47.5 L15,5.5 C15,5.22385763 15.2238576,5 15.5,5 Z" id="Rectangle-Copy-6"></path>
                    <path d="M20.5,5 C20.7761424,5 21,5.22385763 21,5.5 L21,47.5 C21,47.7761424 20.7761424,48 20.5,48 C20.2238576,48 20,47.7761424 20,47.5 L20,5.5 C20,5.22385763 20.2238576,5 20.5,5 Z" id="Rectangle-Copy-8"></path>
                    <path d="M25.5,4 C25.7761424,4 26,4.22385763 26,4.5 L26,46.5 C26,46.7761424 25.7761424,47 25.5,47 C25.2238576,47 25,46.7761424 25,46.5 L25,4.5 C25,4.22385763 25.2238576,4 25.5,4 Z" id="Rectangle-Copy-10"></path>
                    <path d="M30.5,3 C30.7761424,3 31,3.22385763 31,3.5 L31,45.5 C31,45.7761424 30.7761424,46 30.5,46 C30.2238576,46 30,45.7761424 30,45.5 L30,3.5 C30,3.22385763 30.2238576,3 30.5,3 Z" id="Rectangle-Copy-12"></path>
                    <path d="M35.5,0 C35.7761424,-5.07265313e-17 36,0.223857625 36,0.5 L36,44.5 C36,44.7761424 35.7761424,45 35.5,45 C35.2238576,45 35,44.7761424 35,44.5 L35,0.5 C35,0.223857625 35.2238576,3.38176876e-17 35.5,0 Z" id="Rectangle-Copy-14"></path>
                </g>
            </g>
            <path d="M16.5,6.86213314 C16.7761424,6.86213314 17,7.08599077 17,7.36213314 L17,26.3621331 C17,26.6382755 16.7761424,26.8621331 16.5,26.8621331 C16.2238576,26.8621331 16,26.6382755 16,26.3621331 L16,7.36213314 C16,7.08599077 16.2238576,6.86213314 16.5,6.86213314 Z M30.5,0.86213314 C30.7761424,0.86213314 31,1.08599077 31,1.36213314 L31.0009234,18.5727533 C31.0932375,18.7208562 31.1648133,18.8802141 31.213596,19.0503992 C31.7147972,20.7989076 29.6202133,23.0281842 26.5352118,24.0296277 C23.4502104,25.0310712 20.5430186,24.4254555 20.0418174,22.6769471 C19.5406161,20.9284387 21.6352,18.6991622 24.7202015,17.6977186 C26.7808418,17.0288001 28.7621499,17.0768919 30.0000911,17.7036649 L30,1.36213314 C30,1.08599077 30.2238576,0.86213314 30.5,0.86213314 Z" id="Combined-Shape-Copy-3" fill="#303D53"></path>
        </g>
    </g>
</svg>